<?xml version="1.0" standalone="no"?>
<!DOCTYPE svg PUBLIC "-//W3C//DTD SVG 20010904//EN"
 "http://www.w3.org/TR/2001/REC-SVG-20010904/DTD/svg10.dtd">
<svg version="1.0" xmlns="http://www.w3.org/2000/svg"
 width="1873.000000pt" height="1873.000000pt" viewBox="0 0 1873.000000 1873.000000"
 preserveAspectRatio="xMidYMid meet">
<metadata>
Created by potrace 1.11, written by Peter Selinger 2001-2013
</metadata>
<g transform="translate(0.000000,1873.000000) scale(0.100000,-0.100000)"
fill="#000000" stroke="none">
<path d="M8925 18719 c-1868 -91 -3634 -721 -5125 -1827 -584 -433 -1148 -966
-1621 -1532 -1128 -1349 -1862 -3024 -2088 -4770 -58 -444 -76 -731 -76 -1225
0 -408 8 -593 41 -920 173 -1760 835 -3423 1917 -4820 249 -320 471 -571 791
-890 726 -725 1515 -1294 2426 -1750 1687 -844 3577 -1154 5470 -894 1516 207
2989 805 4229 1717 606 445 1179 984 1663 1564 739 885 1326 1938 1688 3028
986 2976 431 6234 -1483 8705 -443 571 -1007 1142 -1567 1587 -882 700 -1854
1225 -2905 1571 -1071 352 -2240 511 -3360 456z m1461 -564 c27 -27 28 -49 8
-187 -6 -43 -12 -41 169 -59 141 -15 170 -30 165 -87 -2 -24 -11 -41 -28 -53
-24 -17 -32 -17 -173 -2 -81 9 -149 14 -151 12 -2 -2 -15 -107 -29 -234 -27
-252 -26 -268 27 -284 44 -13 162 -24 185 -16 11 3 30 24 42 45 29 51 69 69
104 46 62 -41 53 -107 -24 -179 -58 -55 -89 -62 -218 -54 -125 9 -170 23 -219
72 -66 67 -70 97 -45 342 12 115 24 224 27 244 l5 37 -48 7 c-62 9 -83 28 -83
76 0 52 31 73 99 67 l49 -5 7 76 c8 98 20 136 48 149 35 17 56 14 83 -13z
m-815 -185 c45 -13 116 -76 124 -110 9 -39 -27 -80 -70 -80 -18 0 -38 7 -46
16 -31 38 -63 44 -238 44 -141 0 -172 -3 -185 -16 -37 -36 -15 -52 214 -153
176 -78 211 -97 246 -135 95 -103 77 -257 -38 -334 -41 -27 -44 -27 -232 -30
-225 -4 -260 3 -323 63 -48 46 -53 70 -22 109 27 34 62 34 113 -1 38 -27 44
-28 194 -31 85 -2 166 -1 179 3 15 3 30 19 39 41 28 66 15 76 -226 186 -218
100 -262 128 -286 185 -28 65 -8 160 42 204 51 45 71 48 279 49 110 0 216 -5
236 -10z m-1171 -44 c50 -17 146 -92 170 -131 23 -36 56 -260 45 -296 -13 -39
-46 -48 -288 -73 -131 -15 -245 -26 -253 -26 -28 0 -11 -69 25 -98 9 -7 33
-22 54 -33 l38 -20 186 21 c230 25 219 25 248 -5 32 -31 32 -65 1 -94 -22 -21
-46 -25 -235 -44 -242 -25 -269 -22 -354 42 -102 76 -110 94 -133 322 -22 218
-17 243 63 329 68 74 101 89 231 105 139 16 160 17 202 1z m-951 -133 c18 -15
29 -58 66 -246 l45 -229 -11 -141 c-12 -159 -16 -169 -84 -186 -78 -19 -88
-16 -156 54 -35 36 -66 62 -69 58 -3 -5 -16 -40 -28 -80 -27 -87 -51 -109
-128 -119 -70 -8 -72 -6 -157 147 -59 104 -70 135 -121 323 -31 115 -56 219
-56 232 0 51 70 83 113 52 11 -8 39 -89 76 -225 41 -147 71 -234 97 -283 l39
-71 29 90 30 90 -17 73 c-23 95 -22 131 3 153 25 23 75 24 97 3 8 -9 25 -57
37 -107 20 -84 26 -95 81 -157 56 -64 60 -66 66 -43 16 57 7 163 -31 357 -41
211 -41 239 -3 261 27 16 58 13 82 -6z m4980 -307 c28 -22 31 -54 11 -106 -11
-28 -18 -50 -17 -50 2 0 43 14 92 30 49 17 110 30 135 30 51 0 153 -36 211
-74 77 -51 104 -171 61 -268 -22 -51 -50 -66 -97 -54 -39 10 -51 46 -35 109
16 68 5 91 -57 118 -81 35 -85 34 -237 -21 l-144 -52 -67 -176 c-37 -98 -73
-187 -81 -200 -32 -49 -102 -45 -124 7 -10 25 0 57 100 322 148 388 147 386
179 397 27 9 47 6 70 -12z m-7172 -507 c24 -12 54 -35 68 -53 43 -56 304 -485
310 -509 9 -36 -28 -77 -70 -77 -42 0 -44 2 -210 270 -70 113 -136 215 -148
228 -28 30 -52 28 -117 -11 -52 -31 -59 -40 -117 -153 l-62 -120 114 -202 c63
-112 115 -213 115 -225 0 -52 -50 -82 -104 -61 -24 9 -366 615 -366 647 0 35
33 67 69 67 22 0 37 -10 59 -36 l29 -35 43 78 c51 94 97 140 181 182 76 38
142 41 206 10z m8427 -53 c139 -71 167 -95 206 -168 25 -46 34 -78 38 -129 l5
-69 -73 -132 c-117 -213 -131 -232 -194 -263 -65 -32 -160 -43 -221 -26 -22 6
-87 39 -145 73 -91 55 -109 70 -137 117 -37 63 -57 146 -48 201 7 41 162 329
198 368 43 47 132 80 215 81 44 1 68 -7 156 -53z m-3829 -126 c1220 -89 2383
-472 3400 -1118 492 -313 897 -642 1320 -1073 1160 -1184 1882 -2723 2050
-4369 53 -523 45 -1174 -20 -1685 -74 -579 -234 -1207 -443 -1740 l-39 -100
-94 -7 c-106 -8 -238 -45 -285 -80 -48 -35 -82 -80 -113 -150 -33 -72 -61
-194 -61 -263 0 -25 -4 -45 -9 -45 -4 0 -51 20 -102 44 -292 138 -523 152
-784 49 -173 -69 -289 -129 -343 -178 -107 -97 -254 -300 -369 -511 -31 -57
-60 -104 -64 -104 -4 0 -29 19 -56 42 -150 130 -332 238 -400 238 -98 0 -158
-101 -170 -288 -5 -80 -8 -92 -22 -86 -9 4 -61 23 -116 42 -210 74 -435 52
-690 -69 -44 -21 -120 -63 -169 -93 -48 -31 -89 -56 -91 -56 -1 0 6 24 16 53
37 105 15 208 -54 261 -90 69 -255 93 -317 48 -17 -13 -33 -22 -34 -20 -2 1
-16 37 -31 78 -15 41 -61 147 -102 235 -41 88 -86 193 -99 233 -46 141 -96
428 -123 702 -37 366 -77 1283 -83 1914 l-3 249 50 17 c63 22 160 71 204 104
l34 26 266 -135 c145 -74 267 -133 269 -131 2 3 10 229 17 503 l13 498 -279
281 -279 280 0 2075 c1 2252 4 2121 -55 2413 -36 184 -50 232 -112 401 -91
244 -156 373 -198 389 -41 15 -110 -96 -187 -304 -94 -250 -138 -434 -179
-750 -18 -138 -19 -246 -19 -2190 l0 -2045 -81 -80 c-44 -44 -166 -168 -270
-276 l-189 -196 11 -489 c6 -269 13 -495 15 -502 3 -9 86 29 266 122 l263 135
40 -31 c49 -37 147 -87 200 -103 l40 -12 -2 -249 c-3 -482 -50 -1601 -83
-1974 -24 -264 -90 -623 -181 -978 -27 -107 -49 -195 -49 -196 0 -2 -35 -6
-78 -10 -93 -7 -205 -37 -273 -72 -59 -29 -102 -90 -126 -177 -9 -32 -19 -56
-22 -55 -3 2 -51 26 -105 53 -87 44 -107 50 -160 50 -53 0 -70 -5 -119 -35
-31 -19 -86 -60 -121 -92 -35 -32 -66 -58 -69 -58 -2 0 -7 47 -11 105 -6 101
-33 233 -56 276 -7 11 -27 27 -46 35 -40 17 -39 14 -19 160 63 446 70 1031 19
1509 -84 785 -319 1563 -678 2250 -637 1217 -1627 2191 -2861 2815 -725 367
-1489 592 -2305 679 -236 25 -605 44 -783 39 -75 -1 -137 -2 -137 -1 0 3 107
188 158 273 25 41 98 155 163 253 929 1397 2338 2450 3929 2938 583 179 1186
286 1800 319 193 10 674 5 875 -10z m-5499 -462 c35 -16 67 -49 153 -157 140
-176 146 -188 145 -278 -1 -60 -6 -84 -32 -136 -27 -55 -45 -75 -124 -137
-117 -92 -144 -104 -238 -104 -122 -1 -162 24 -286 181 -141 178 -147 189
-147 278 1 81 25 150 71 199 58 61 196 160 241 173 60 17 160 8 217 -19z
m10269 -41 c55 -28 299 -226 308 -249 17 -47 -37 -108 -84 -93 -10 4 -78 53
-151 110 l-133 105 -81 0 c-128 0 -138 -4 -198 -79 -95 -119 -91 -108 -71
-214 10 -50 22 -100 27 -110 5 -9 64 -61 131 -114 67 -52 128 -103 135 -111
33 -42 -2 -112 -56 -112 -34 0 -308 211 -335 259 -10 17 -29 88 -43 157 -33
172 -35 165 114 357 25 31 61 67 80 79 60 37 296 47 357 15z m929 -398 c27
-21 34 -56 17 -87 -5 -10 -102 -104 -215 -211 -113 -107 -204 -196 -201 -199
2 -3 118 -17 256 -32 219 -24 254 -30 272 -48 28 -29 27 -80 -2 -104 -29 -22
-36 -22 -246 2 -93 11 -174 20 -178 20 -5 0 -5 -116 -1 -258 l7 -259 -24 -16
c-33 -23 -66 -21 -93 6 -22 22 -24 34 -30 183 -3 87 -9 205 -13 260 l-6 102
-44 6 c-45 6 -45 6 -126 -70 -45 -42 -90 -81 -102 -86 -47 -21 -105 31 -92 84
4 13 149 158 333 333 459 435 434 416 488 374z m-12080 -250 c19 -15 26 -30
26 -53 0 -41 -23 -62 -75 -71 -22 -4 -45 -10 -52 -14 -25 -13 -243 -256 -243
-271 0 -20 19 -40 38 -40 7 0 104 39 215 86 111 48 221 89 244 92 108 12 220
-65 242 -166 22 -105 -1 -149 -166 -319 -120 -124 -132 -133 -187 -149 -41
-11 -68 -14 -90 -7 -75 21 -70 113 8 134 70 18 86 30 193 146 89 97 103 117
103 147 0 25 -7 40 -26 55 -15 12 -33 21 -41 21 -8 0 -112 -41 -231 -90 -215
-91 -263 -103 -323 -85 -40 12 -85 52 -103 90 -21 44 -23 123 -4 160 22 42
269 305 303 323 72 37 131 41 169 11z m-1233 -846 c54 -39 68 -75 45 -118 -29
-53 -73 -95 -99 -95 -32 0 -115 64 -123 95 -4 18 3 39 26 75 51 79 85 89 151
43z m13844 -57 c37 -13 78 -35 92 -48 45 -41 161 -212 173 -255 17 -57 -1
-184 -34 -234 -22 -33 -170 -148 -220 -170 -43 -20 -68 4 -221 219 -149 209
-150 209 -173 194 -31 -20 -42 -51 -42 -116 0 -51 3 -57 120 -221 66 -93 120
-176 120 -185 0 -33 -39 -70 -74 -70 -40 0 -44 5 -174 187 -135 190 -137 193
-137 283 1 102 10 139 46 183 34 41 290 228 335 245 49 18 119 13 189 -12z
m-13344 -299 c134 -95 249 -176 255 -179 5 -4 29 22 53 57 52 76 88 96 126 71
34 -23 46 -54 31 -87 -6 -14 -67 -105 -136 -202 -136 -192 -160 -213 -205
-183 -31 21 -45 54 -35 82 5 11 26 47 49 79 l40 58 -22 17 c-70 54 -396 280
-403 280 -5 0 -25 -24 -44 -52 -45 -67 -68 -88 -97 -88 -30 0 -73 42 -73 72 0
23 126 212 157 236 9 6 27 12 39 12 12 0 128 -76 265 -173z m-523 -636 c265
-143 439 -243 449 -257 33 -51 -26 -120 -85 -98 l-28 11 4 -88 c4 -87 4 -88
-38 -166 -55 -103 -71 -120 -159 -161 -67 -31 -82 -34 -137 -29 -54 4 -81 15
-223 93 -206 112 -235 148 -248 304 -5 63 -3 69 43 158 50 99 77 127 157 162
26 12 47 23 47 25 0 2 -57 34 -127 71 -167 87 -193 107 -193 145 0 41 34 72
73 67 18 -2 227 -109 465 -237z m14509 60 c12 -18 24 -37 26 -44 3 -8 32 2 88
32 96 49 131 51 162 10 34 -46 15 -76 -84 -132 -46 -26 -83 -53 -81 -60 2 -6
32 -65 68 -129 38 -70 64 -129 64 -147 0 -57 -76 -89 -117 -48 -6 7 -42 68
-79 137 -37 69 -68 126 -69 128 -5 6 -411 -220 -422 -236 -7 -9 -13 -27 -13
-41 0 -27 69 -159 92 -179 8 -6 40 -12 72 -14 50 -3 62 -7 79 -29 44 -60 -22
-124 -119 -115 -106 9 -150 50 -235 216 -53 105 -41 209 33 277 12 11 115 72
228 133 113 62 206 113 208 115 2 1 -7 23 -19 48 -28 57 -20 93 23 112 40 16
67 7 95 -34z m496 -979 c9 -8 17 -29 17 -48 0 -37 -29 -66 -87 -85 l-35 -11
83 -45 c111 -59 142 -90 179 -182 36 -91 40 -163 11 -220 -56 -108 -207 -160
-235 -80 -16 46 0 78 50 100 63 28 73 55 49 127 -11 31 -31 68 -46 82 -14 14
-81 52 -147 84 l-120 59 -186 -76 c-103 -42 -196 -77 -208 -77 -51 0 -86 72
-55 113 9 12 531 234 657 280 20 7 51 -2 73 -21z m-15317 -142 c148 -55 275
-107 282 -117 31 -43 -1 -113 -53 -113 -28 0 -29 -5 -16 -85 8 -46 5 -58 -45
-180 -43 -104 -62 -137 -93 -166 -40 -36 -97 -59 -144 -59 -35 0 -153 45 -200
76 -47 31 -87 110 -87 172 0 41 76 247 131 355 l20 38 -38 15 c-61 26 -96 28
-120 7 -12 -10 -45 -76 -74 -148 -28 -71 -58 -138 -67 -147 -19 -22 -75 -23
-96 -2 -32 31 -28 57 32 203 66 161 96 205 156 232 79 36 118 28 412 -81z
m15687 -881 c35 -16 49 -51 36 -88 -9 -24 -22 -34 -65 -51 -30 -11 -59 -20
-65 -20 -16 0 -369 -300 -369 -314 1 -31 24 -38 244 -67 216 -28 230 -29 281
-14 29 8 63 15 76 15 31 0 69 -38 69 -70 0 -38 -35 -65 -114 -88 l-68 -21
-477 60 c-431 55 -478 63 -497 82 -19 19 -84 211 -84 246 0 21 48 61 73 61 40
0 59 -24 87 -111 l27 -84 99 -12 c143 -17 137 -18 129 16 -3 17 -1 39 5 50 6
12 106 100 222 198 194 162 217 178 282 199 86 27 80 26 109 13z m-16318 -38
c39 -11 151 -40 250 -66 291 -75 285 -73 300 -107 7 -17 10 -39 7 -50 -6 -24
-40 -48 -68 -48 -12 0 -139 31 -281 69 -249 67 -283 75 -310 72 -19 -2 -15
-40 11 -96 l22 -49 253 -76 c221 -65 257 -79 274 -103 26 -34 15 -74 -25 -96
-25 -14 -43 -10 -318 72 -160 48 -295 85 -301 82 -16 -10 -10 -47 17 -110 l25
-61 232 -69 c128 -37 244 -74 259 -82 48 -23 51 -83 5 -116 l-27 -21 -347 105
c-316 94 -349 106 -362 131 -20 35 -5 78 32 96 21 10 27 18 22 30 -30 73 0
168 67 211 33 21 36 26 26 45 -49 91 -15 196 76 237 52 24 75 23 161 0z m3507
-3401 c114 -43 203 -153 229 -282 31 -154 -63 -323 -219 -396 -47 -22 -71 -27
-142 -27 -47 0 -97 3 -112 8 -25 6 -29 4 -42 -27 -21 -51 -77 -89 -141 -94
-45 -4 -62 0 -99 22 -48 28 -86 90 -86 141 0 46 38 112 78 136 20 13 38 23 40
24 1 1 -5 31 -14 66 -61 237 134 470 381 455 39 -2 96 -14 127 -26z m-685
-793 c166 -85 194 -309 52 -430 -109 -94 -261 -87 -363 16 -58 59 -76 104 -76
193 0 189 211 310 387 221z m-476 -513 c38 -19 77 -69 89 -115 35 -130 -91
-254 -222 -218 -58 15 -85 35 -113 84 -92 156 83 333 246 249z m12998 -1705
c223 -139 412 -259 419 -267 6 -9 12 -29 12 -45 0 -37 -54 -115 -84 -123 -47
-11 -93 35 -82 81 5 21 -11 34 -173 134 -98 61 -184 113 -192 116 -10 4 -54
-59 -144 -205 -94 -151 -137 -213 -156 -221 -33 -13 -46 -6 -244 118 -133 84
-140 90 -143 123 -2 30 19 70 143 269 79 129 152 242 161 252 37 40 61 29 483
-232z m-14321 -26 c28 -13 57 -50 140 -177 58 -89 111 -181 119 -205 18 -60 2
-141 -31 -163 -21 -15 -66 -8 -87 13 -17 17 -20 28 -14 67 6 46 5 50 -87 191
-100 155 -117 173 -142 152 -22 -18 -20 -49 14 -261 34 -213 36 -237 14 -288
-44 -106 -150 -159 -257 -128 -67 20 -94 48 -201 215 -90 141 -101 171 -94
253 8 83 64 113 114 63 18 -18 25 -35 24 -58 -1 -18 -2 -41 -1 -53 1 -24 143
-250 173 -276 27 -24 59 -23 92 3 33 26 33 33 -5 271 -17 108 -29 216 -26 245
4 60 42 117 91 139 43 18 121 17 164 -3z m782 -683 c11 -11 20 -32 20 -47 0
-26 -7 -34 -119 -131 l-35 -29 83 -104 c46 -57 88 -114 93 -126 24 -50 -21
-103 -75 -89 -16 4 -58 48 -117 121 -62 78 -96 113 -104 107 -207 -161 -349
-280 -357 -299 -11 -30 -3 -47 64 -132 l51 -63 67 6 c54 6 70 4 83 -9 22 -22
30 -59 17 -83 -27 -50 -154 -69 -221 -34 -42 23 -154 151 -181 207 -33 70 -23
163 24 214 16 17 322 268 375 307 2 1 -11 22 -28 47 -23 31 -30 51 -25 66 10
34 34 51 70 51 27 0 39 -7 61 -35 14 -19 31 -35 38 -34 6 0 40 24 76 54 71 60
106 69 140 35z m12810 -280 c201 -154 368 -280 372 -280 6 0 78 94 78 102 0 3
-52 44 -115 92 -113 86 -135 109 -135 141 0 23 45 65 70 65 20 0 298 -202 333
-242 9 -11 17 -30 17 -43 0 -22 -318 -450 -362 -487 -27 -24 -63 -23 -88 2
-34 34 -25 67 46 161 37 47 66 91 64 95 -4 10 -621 484 -630 484 -3 0 -36 -40
-73 -89 -70 -92 -99 -111 -137 -91 -23 12 -40 41 -40 66 0 21 210 303 225 303
6 0 174 -126 375 -279z m-707 -264 c26 -11 610 -553 656 -609 7 -9 16 -37 19
-62 6 -61 -9 -82 -205 -282 -134 -138 -164 -163 -195 -169 -27 -4 -47 -1 -72
12 -54 29 -647 594 -662 631 -32 75 -18 98 180 307 177 186 205 204 279 172z
m-11783 -206 c24 -13 33 -55 19 -83 -7 -12 -95 -108 -196 -214 -211 -221 -212
-222 -142 -298 39 -42 44 -44 176 -75 l135 -32 162 161 c134 132 167 161 191
161 39 0 65 -26 65 -66 0 -29 -25 -57 -240 -271 -132 -131 -252 -242 -266
-248 -68 -26 -111 62 -60 122 l25 30 -82 17 c-101 22 -146 45 -204 102 -85 86
-104 173 -55 262 15 29 108 136 212 246 193 204 207 214 260 186z m11167 -437
c45 -25 270 -295 282 -339 9 -31 5 -60 -14 -105 -3 -10 -82 -81 -176 -159
-148 -125 -167 -144 -156 -159 6 -9 54 -67 106 -129 83 -98 96 -110 110 -99
395 333 380 322 416 313 33 -8 59 -49 51 -81 -4 -16 -89 -94 -252 -231 -204
-171 -248 -204 -258 -193 -76 83 -295 352 -308 379 -43 84 -21 119 178 285 90
76 164 141 164 145 0 12 -199 245 -209 245 -5 0 -90 -69 -190 -153 -99 -84
-192 -157 -206 -164 -37 -16 -79 16 -83 63 -3 34 3 39 199 204 110 94 211 175
223 182 31 18 86 16 123 -4z m-10447 -284 c38 -8 70 -26 125 -70 79 -62 110
-108 121 -178 4 -23 10 -41 14 -41 4 0 56 59 114 130 99 120 110 130 141 130
39 0 65 -29 65 -70 -1 -34 -609 -781 -646 -794 -57 -19 -104 56 -69 110 l15
24 -60 0 c-75 0 -115 16 -189 77 -78 64 -99 97 -117 184 -24 117 -14 145 115
304 145 179 154 186 308 204 7 0 35 -4 63 -10z m835 -595 c183 -101 219 -141
246 -271 17 -81 7 -113 -73 -233 -89 -134 -77 -135 -335 29 -112 72 -208 131
-213 131 -14 0 -33 -60 -27 -90 16 -79 30 -94 173 -185 197 -125 204 -130 204
-167 0 -17 -7 -40 -17 -50 -31 -34 -66 -22 -225 80 -84 53 -162 104 -173 112
-63 46 -112 169 -103 257 4 39 22 75 93 188 98 155 115 177 162 206 35 22 146
39 198 31 17 -2 57 -19 90 -38z m7663 -350 c12 -8 56 -86 99 -175 l77 -160 32
53 c69 115 92 138 177 179 54 26 95 39 121 39 53 0 137 -40 163 -76 33 -46
273 -505 273 -521 0 -25 -20 -54 -46 -63 -51 -20 -68 2 -205 260 -71 134 -134
247 -141 252 -24 14 -68 8 -117 -16 -42 -22 -55 -37 -114 -136 -37 -61 -67
-115 -67 -119 0 -5 43 -97 96 -205 103 -211 108 -235 62 -269 -23 -17 -31 -18
-56 -8 -26 11 -54 63 -242 449 -123 253 -213 449 -213 466 0 19 8 36 22 48 28
22 50 23 79 2z m-7036 -21 c24 -28 26 -45 12 -82 -8 -18 -14 -34 -14 -35 0 -1
35 2 78 7 100 11 155 4 228 -28 71 -31 110 -66 135 -120 39 -84 35 -98 -186
-602 -34 -77 -70 -98 -113 -66 -15 11 -28 32 -30 46 -2 16 37 120 103 273 73
172 105 257 103 279 -4 44 -81 85 -158 84 -57 0 -226 -22 -233 -30 -3 -2 -46
-92 -96 -199 -92 -195 -115 -230 -154 -230 -27 0 -67 38 -67 64 0 29 286 628
307 644 24 17 67 15 85 -5z m1042 -194 c32 -25 33 -46 1 -139 -14 -40 -25 -78
-25 -85 0 -6 60 -30 133 -54 134 -44 167 -64 167 -105 0 -34 -28 -66 -58 -66
-16 0 -88 20 -160 44 -93 32 -134 41 -138 33 -2 -7 -35 -106 -73 -220 -86
-257 -87 -254 43 -297 92 -30 109 -29 156 14 47 43 72 45 106 10 20 -19 24
-31 19 -52 -17 -70 -87 -123 -170 -130 -41 -3 -74 3 -150 28 -106 35 -154 69
-186 131 -32 63 -25 107 55 347 l75 223 -27 10 c-53 19 -73 33 -78 56 -17 68
34 106 109 80 l44 -15 13 42 c28 95 51 144 73 154 32 15 41 14 71 -9z m5785
-184 c38 -19 48 -60 24 -94 -14 -18 -54 -36 -159 -71 -77 -26 -150 -52 -161
-59 -31 -16 -115 -159 -115 -196 0 -16 15 -71 34 -120 l33 -90 98 -40 98 -39
165 54 c156 52 166 54 192 39 34 -18 42 -71 16 -100 -9 -10 -92 -43 -187 -75
-132 -43 -179 -55 -208 -50 -39 6 -216 77 -253 101 -32 21 -58 75 -101 203
-34 105 -36 116 -25 160 14 57 117 229 154 256 18 14 316 125 364 135 2 1 16
-6 31 -14z m-4021 -147 c138 -14 158 -25 155 -90 -1 -23 -20 -218 -42 -432
-23 -214 -41 -399 -41 -412 0 -21 6 -23 76 -29 87 -9 114 -26 114 -75 0 -36
-31 -70 -62 -69 -13 0 -116 10 -230 22 -230 25 -248 32 -248 93 0 54 31 68
130 59 48 -4 80 -3 80 2 0 6 18 184 40 398 23 213 39 389 38 391 -2 1 -39 7
-83 13 -62 7 -84 14 -97 31 -25 30 -22 56 7 85 28 29 17 28 163 13z m3101
-182 c60 -42 81 -96 152 -393 l63 -263 -24 -25 c-28 -30 -70 -33 -94 -6 -11
12 -44 122 -82 277 -36 141 -69 266 -75 276 -17 31 -51 38 -114 23 -53 -12
-66 -21 -152 -107 l-94 -95 46 -223 c37 -176 45 -227 36 -246 -19 -43 -98 -45
-118 -2 -6 13 -41 171 -79 351 -72 351 -72 348 -21 377 24 13 30 13 55 0 18
-10 30 -28 36 -53 l9 -36 71 63 c39 34 82 69 96 76 48 25 116 39 181 37 54 -2
74 -8 108 -31z m-849 -128 c11 -12 20 -27 20 -32 0 -6 14 -161 31 -344 l32
-333 -23 -25 c-44 -46 -103 -21 -118 49 l-7 39 -65 -52 c-93 -75 -135 -92
-239 -93 -80 -2 -91 0 -129 26 -83 54 -88 71 -132 393 -35 259 -38 291 -24
311 29 44 102 35 118 -14 3 -10 21 -137 41 -283 41 -312 38 -306 142 -297 59
6 67 10 167 88 86 67 106 87 106 108 0 25 -24 289 -35 382 -4 37 -1 51 16 72
26 34 70 36 99 5z m-1082 -54 c21 -3 51 -21 78 -46 65 -60 71 -93 79 -415 7
-266 6 -272 -14 -292 -31 -31 -75 -27 -104 10 l-24 30 -52 -30 c-51 -31 -54
-31 -189 -31 -112 0 -144 4 -177 19 -87 40 -125 110 -125 229 0 98 30 165 92
208 l41 29 204 0 203 0 0 56 c0 41 -5 63 -19 80 -18 23 -26 24 -182 29 -160 5
-162 5 -181 31 -26 35 -15 77 24 93 28 12 270 12 346 0z"/>
<path d="M8200 17778 c-69 -8 -78 -12 -117 -51 -41 -39 -43 -44 -43 -102 0
-33 4 -65 8 -71 5 -8 58 -6 192 8 252 25 232 18 224 81 -9 67 -17 82 -66 117
-45 33 -64 35 -198 18z"/>
<path d="M13464 16819 c-41 -12 -49 -22 -134 -173 -63 -112 -72 -134 -67 -166
10 -80 42 -112 174 -180 59 -30 64 -31 116 -20 30 6 62 19 70 28 8 9 50 79 93
156 l77 138 -18 54 c-22 64 -37 78 -136 133 -78 42 -113 48 -175 30z"/>
<path d="M4155 16208 c-11 -6 -52 -37 -91 -69 -61 -49 -73 -65 -83 -103 -6
-25 -11 -55 -11 -68 0 -26 196 -281 224 -291 10 -4 42 -7 71 -7 51 0 58 4 129
60 91 72 106 93 113 162 l5 53 -77 100 c-43 55 -94 117 -114 138 -32 34 -39
37 -91 37 -30 0 -64 -6 -75 -12z"/>
<path d="M15950 14622 c-43 -20 -100 -67 -96 -79 9 -23 231 -332 239 -333 17
-1 93 63 104 88 7 15 12 47 13 72 0 39 -8 56 -60 129 -65 91 -79 104 -125 115
-16 4 -37 9 -45 11 -8 2 -22 0 -30 -3z"/>
<path d="M2057 13629 c-85 -34 -121 -69 -151 -152 -14 -36 -14 -49 -3 -92 16
-59 30 -70 210 -164 l122 -64 59 24 c54 22 61 29 95 90 l35 66 -13 79 c-23
136 -26 142 -116 192 -104 58 -138 61 -238 21z"/>
<path d="M1829 12591 c-19 -12 -131 -284 -131 -318 0 -32 19 -52 70 -74 55
-24 94 -24 115 -1 9 10 34 61 56 113 l39 94 -12 83 c-7 45 -18 88 -23 93 -15
15 -94 22 -114 10z"/>
<path d="M16100 5338 c-58 -94 -105 -173 -105 -176 0 -7 176 -115 179 -111 10
12 208 335 209 342 2 8 -160 117 -173 117 -3 0 -52 -78 -110 -172z"/>
<path d="M14997 3890 c-77 -82 -140 -150 -140 -152 -3 -7 570 -548 580 -548 8
0 230 231 265 276 18 22 17 23 -240 265 -141 133 -273 257 -292 274 l-35 33
-138 -148z"/>
<path d="M3984 3097 c-23 -13 -192 -216 -213 -255 -9 -18 -10 -36 -1 -76 9
-46 18 -60 60 -95 74 -62 108 -70 238 -54 51 6 55 8 111 77 85 105 84 101 65
208 -16 91 -18 94 -68 142 -28 26 -61 52 -74 57 -33 13 -93 11 -118 -4z"/>
<path d="M4775 2543 c-16 -3 -38 -12 -49 -21 -20 -18 -71 -101 -65 -106 17
-12 341 -216 344 -216 1 0 17 23 35 50 28 44 32 56 26 91 -9 58 -30 93 -68
116 -18 11 -60 37 -92 57 -58 35 -69 38 -131 29z"/>
<path d="M9186 938 c-10 -15 -16 -45 -16 -85 0 -94 14 -103 152 -103 l109 0
75 43 75 42 -5 44 c-11 79 -16 81 -207 81 -162 0 -168 -1 -183 -22z"/>
</g>
</svg>
